<svg version="1" xmlns="http://www.w3.org/2000/svg" width="1600" height="1600" viewBox="0 0 1200.000000 1200.000000"><path d="M0 600v600h1200V0H0v600zm216.9-444.5c18.4 2.8 44.4 3.8 80.1 3.1 19-.3 35.6-.8 37-1 2.9-.4 24-1.7 34.8-2.1 4-.2 10.7.4 15 1.3 9.8 2 12.1 4.3 20.1 20.7 3.3 6.6 11.3 23 17.9 36.5 6.6 13.5 20.9 42.7 31.9 65 11 22.3 26.9 54.4 35.3 71.5 8.4 17 23.8 48.3 34.3 69.5 31.1 63.2 47.5 96.6 65.6 133.5 19.9 40.8 22.5 45.8 23.8 46.2 1.2.4 6.9-11.8 7.8-16.7.4-1.9 2-6.9 3.6-11s5.1-13.6 7.8-21c18.9-51.7 46.8-114.1 75.9-169.5 32.6-62.1 65.7-113.6 98-152.5 12.1-14.6 37.3-39.7 47.7-47.6 16.2-12.2 29.4-19.4 44-24 7.8-2.5 10.6-2.9 21-2.9 13.9 0 20.5 1.6 28.1 6.8 18.9 13 27.7 42.9 27.8 94.2.1 23.3-.9 38.9-4.5 72.5-1.9 17.9-9.9 74.3-11.9 84.5-.5 2.7-2.5 14.2-4.5 25.5-1.9 11.3-5.7 32.9-8.5 48-2.8 15.1-6.4 34.7-8 43.5-1.6 8.8-3.8 20.5-4.9 26-1.1 5.5-3.1 16.5-4.5 24.5-2.6 14.4-7.7 41.3-15.6 81.5-17.3 88-26.2 150.9-30.5 214.5-1.5 23.1-1.8 69.1-.4 88 3.2 46.4 15.4 71.9 40 84.4 15.7 8 30.5 8.7 43.5 2.1 20.4-10.4 35.4-37.3 34.2-61.4-.5-10-2.7-15.7-8.4-22.1-5-5.5-10-7.7-19.5-8.6l-7.7-.7-1.2-3.8c-3.5-10.6 2.5-24.6 12.7-29.4 3.5-1.7 3.8-1.7 11.5.9 4.3 1.4 10.2 4.1 13.1 5.9 31.8 20.4 34.2 73.8 4.9 110.6-10.9 13.6-25.3 23-42.3 27.6-10.9 2.9-15.3 3.1-29.8 1-29.9-4.4-47.6-12.7-65.7-30.9-28.8-29.1-43.6-74.2-47.5-145.2-2.5-46.4 2.2-111.5 14-192.4 4.6-31.6 18.4-112.4 21.5-126 .8-3.6 2.7-12.6 4-20 2.8-14.9 9.8-49.6 17.6-87 2.8-13.5 6.4-31.4 8-39.9 1.7-8.5 3.4-17.1 4-19 .5-2 2.5-13 4.5-24.6 2-11.5 3.8-21.2 4-21.6.7-1.1 9.4-63.3 10.4-74.4 3.5-39.1 1.6-57.2-7.2-67.2-3.3-3.7-9.7-7.2-13.2-7.3-3.2 0-13.4 5.3-20.5 10.6-10.8 8.1-32 30.6-45.5 48.4-2.8 3.6-5.2 6.7-5.5 7-2.3 2.1-25.3 34.4-35 49-10.8 16.4-33.8 53.7-38.8 63-.7 1.4-3.5 6.3-6.2 11-34.2 60.2-70.7 142.2-95 213.7-7.8 22.9-8.1 24.2-6.7 27 .8 1.5 2 4.6 2.6 6.8.6 2.3 2.8 6.4 4.8 9.3 2.1 2.8 5.4 7.9 7.3 11.4 1.9 3.4 4.5 7.7 5.7 9.5l2.2 3.3-3 6.7c-2.8 6.2-6.3 14.5-15.4 36.8-1.8 4.4-5.2 12.5-7.4 18-2.3 5.5-7.1 17.4-10.6 26.5-3.5 9.1-6.7 17.3-7 18.3-.6 1.5-1.8 1.7-7.2 1.5-6.4-.3-6.5-.3-7.9-3.8-.7-1.9-3.6-9.6-6.4-17-12.9-34.3-39.5-99.8-51.5-127-1.8-4.1-7.8-17.9-13.3-30.5-27.7-63.6-50.3-111.3-96.4-203.5-38.2-76.4-48.3-96-75.6-146-2.5-4.5-17.3-30.1-17.9-30.9-1.4-1.9-3.5 14-5.8 43.4-.8 11.5-1.8 23.2-2 26-.8 9.2-2.5 37.7-4 68-6.6 133.7-8.5 285.1-4 316 .2 1.7.9 8.2 1.5 14.5 1.7 18.4 3.9 36.3 4.9 39.5 2.8 9.9 11.3 18.9 20.5 21.8 11 3.5 41.7 6.7 64 6.7 11.6 0 32.3 1.4 37.7 2.5 4.8 1.1 7.5 10.9 4.7 17.1l-1.2 2.6-18.6-.6c-10.2-.4-31.5-1.1-47.5-1.6-34.6-1.2-53.8-1.9-82-2.9-18.7-.7-50.4-.1-68.5 1.4-13.9 1.1-67.5 2.4-68.3 1.6-.4-.4-.7-3.4-.5-6.7.3-5.7.4-5.9 4.3-8.1 5.1-2.8 23.9-8.1 35.8-9.9 5-.8 16.2-1.9 24.7-2.4 36.8-2.4 40.8-4.6 45.3-24.6 3.7-16.2 7.3-57 9.7-109.9 1.7-38.5 3.9-80.8 5.5-104.5.8-12.4 2.1-34.9 3-50 2.3-42.2 4.4-77.1 5.5-92 .6-7.4 1.2-16.9 1.5-21 .7-10.3 4.2-71 5.5-96 .6-11.3 1.3-22.1 1.5-24 .6-4.6.7-48.1.2-48.6-.9-1-24.1-4.4-65.7-9.9-5.8-.7-20.9-2.4-33.6-3.6l-23.2-2.3-2.6-4c-1.4-2.2-2.6-5.2-2.6-6.6 0-4.2 3.3-9.2 7.1-10.5 4.7-1.7 16.6-1.7 27.8 0zm455.1 743V918H162v-39h510v19.5z"/></svg>